<?xml version="1.0" standalone="no"?>
<!DOCTYPE svg PUBLIC "-//W3C//DTD SVG 20010904//EN"
 "http://www.w3.org/TR/2001/REC-SVG-20010904/DTD/svg10.dtd">
<svg version="1.0" xmlns="http://www.w3.org/2000/svg"
 width="764.000000pt" height="244.000000pt" viewBox="0 0 764.000000 244.000000"
 preserveAspectRatio="xMidYMid meet">

<g transform="translate(0.000000,244.000000) scale(0.100000,-0.100000)"
fill="#000000" stroke="none">
<path d="M1410 2294 c-751 -67 -1375 -123 -1388 -123 -22 -1 -22 -2 -6 -26 15
-24 15 -27 0 -44 -20 -22 -20 -37 -1 -45 21 -8 19 -53 -2 -66 -17 -10 -16 -12
5 -26 26 -20 28 -41 5 -67 -17 -18 -17 -19 0 -32 18 -13 24 -65 7 -65 -5 0
-10 -5 -10 -11 0 -8 28 -9 98 -4 120 8 142 13 136 30 -3 7 0 16 6 20 7 4 14
-2 17 -14 3 -12 10 -21 17 -21 6 0 130 11 276 25 146 14 275 25 288 25 l22 0
0 -925 0 -925 150 0 150 0 0 940 c0 517 3 940 8 940 4 0 358 32 786 70 428 38
782 68 785 65 4 -2 139 -211 301 -464 l294 -460 26 16 c51 34 1536 1126 1550
1140 14 15 -161 -73 -1102 -551 l-387 -197 -28 44 c-15 25 -147 232 -293 461
l-265 415 -40 -1 c-22 0 -654 -56 -1405 -124z m-1250 -144 c0 -11 -4 -20 -9
-20 -14 0 -23 18 -16 30 10 17 25 11 25 -10z m90 -10 c0 -11 -4 -20 -10 -20
-5 0 -10 9 -10 20 0 11 5 20 10 20 6 0 10 -9 10 -20z m-80 -76 c0 -16 -16 -19
-25 -4 -8 13 4 32 16 25 5 -4 9 -13 9 -21z m90 -10 c0 -16 -16 -19 -25 -4 -8
13 4 32 16 25 5 -4 9 -13 9 -21z m-87 -58 c6 -15 -1 -26 -15 -26 -4 0 -8 9 -8
20 0 23 15 27 23 6z m97 -22 c0 -8 -7 -14 -15 -14 -15 0 -21 21 -9 33 10 9 24
-2 24 -19z m-90 -64 c0 -11 -4 -20 -9 -20 -14 0 -23 18 -16 30 10 17 25 11 25
-10z m90 -15 c0 -8 -4 -15 -10 -15 -5 0 -10 7 -10 15 0 8 5 15 10 15 6 0 10
-7 10 -15z m-80 -71 c0 -8 -7 -14 -15 -14 -15 0 -21 21 -9 33 10 9 24 -2 24
-19z"/>
<path d="M6150 990 l0 -980 150 0 150 0 2 631 3 630 269 -455 c196 -332 274
-456 287 -456 23 0 34 -19 15 -26 -12 -5 -11 -11 6 -40 16 -28 24 -33 44 -28
18 5 24 2 24 -11 0 -13 -6 -16 -21 -12 -20 5 -20 5 2 -31 12 -20 42 -72 67
-115 41 -70 62 -93 62 -67 0 17 48 11 59 -7 9 -17 10 -17 28 0 25 22 41 22 66
0 18 -17 19 -17 28 0 13 22 48 22 65 0 13 -17 15 -17 25 -1 6 11 22 18 40 18
l29 0 0 938 c-1 922 -1 938 -20 950 -11 7 -20 19 -20 27 0 22 -14 18 -25 -7
-15 -34 -52 -35 -67 -4 -14 32 -26 33 -30 4 -2 -18 -10 -23 -33 -23 -23 0 -31
5 -33 23 -4 30 -20 28 -32 -4 -12 -32 -50 -30 -65 4 -19 42 -25 22 -25 -83 0
-63 4 -105 10 -105 6 0 10 -7 10 -15 0 -8 -4 -15 -10 -15 -6 0 -11 -186 -12
-522 l-3 -523 -369 624 c-203 343 -371 632 -373 642 -5 18 -17 19 -154 19
l-149 0 0 -980z m1140 755 c0 -8 -7 -15 -15 -15 -16 0 -20 12 -8 23 11 12 23
8 23 -8z m70 0 c0 -8 -7 -15 -15 -15 -16 0 -20 12 -8 23 11 12 23 8 23 -8z
m75 5 c3 -6 -1 -13 -10 -16 -19 -8 -30 0 -20 15 8 14 22 14 30 1z m70 0 c3 -6
-1 -13 -10 -16 -19 -8 -30 0 -20 15 8 14 22 14 30 1z m-394 -1405 c-1 -15 -24
-12 -29 3 -3 9 2 13 12 10 10 -1 17 -7 17 -13z m89 6 c0 -14 -18 -23 -30 -16
-6 4 -8 11 -5 16 8 12 35 12 35 0z m80 -6 c0 -8 -6 -15 -14 -15 -17 0 -28 14
-19 24 12 12 33 6 33 -9z m80 0 c0 -8 -6 -15 -14 -15 -17 0 -28 14 -19 24 12
12 33 6 33 -9z m80 0 c0 -8 -6 -15 -14 -15 -17 0 -28 14 -19 24 12 12 33 6 33
-9z m80 0 c0 -8 -6 -15 -14 -15 -17 0 -28 14 -19 24 12 12 33 6 33 -9z m-340
-90 c0 -8 -6 -15 -14 -15 -17 0 -28 14 -19 24 12 12 33 6 33 -9z m80 0 c0 -8
-6 -15 -14 -15 -17 0 -28 14 -19 24 12 12 33 6 33 -9z m80 0 c0 -8 -6 -15 -14
-15 -17 0 -28 14 -19 24 12 12 33 6 33 -9z m80 0 c0 -8 -7 -15 -15 -15 -8 0
-15 7 -15 15 0 8 7 15 15 15 8 0 15 -7 15 -15z m80 0 c0 -8 -7 -15 -15 -15 -8
0 -15 7 -15 15 0 8 7 15 15 15 8 0 15 -7 15 -15z"/>
<path d="M5010 1784 c-165 -30 -310 -92 -427 -180 -137 -102 -245 -261 -299
-439 -25 -80 -28 -106 -28 -240 -1 -161 7 -211 55 -328 162 -400 570 -616 998
-527 113 23 264 95 358 170 131 105 245 280 293 450 89 317 -22 674 -278 892
-80 69 -238 151 -342 179 -73 19 -274 33 -330 23z m261 -330 c179 -53 330
-204 383 -383 20 -69 21 -227 1 -300 -42 -160 -169 -300 -332 -369 -114 -48
-283 -49 -402 -2 -156 61 -286 199 -333 355 -31 98 -30 245 1 335 60 171 188
298 360 357 83 28 238 31 322 7z"/>
<path d="M1490 695 l0 -695 170 0 170 0 0 695 0 695 -170 0 -170 0 0 -695z"/>
<path d="M2526 940 c-335 -197 -613 -363 -617 -367 -12 -12 153 -294 169 -288
16 6 1214 705 1226 716 8 7 -153 300 -164 298 -3 0 -279 -162 -614 -359z"/>
<path d="M3525 1108 c-71 -49 -130 -95 -129 -102 1 -6 154 -236 340 -509 l339
-497 197 0 c108 0 199 3 201 7 5 9 -797 1187 -810 1189 -4 1 -66 -38 -138 -88z"/>
</g>
</svg>
